<svg xmlns="http://www.w3.org/2000/svg" viewBox="0 0 200 80" fill="currentColor" aria-hidden="true"><rect x="1.67" y="2.00" width="5" height="76.00" rx="2.50"/><rect x="10.00" y="3.00" width="5" height="74.00" rx="2.50"/><rect x="18.33" y="8.36" width="5" height="63.28" rx="2.50"/><rect x="26.67" y="18.64" width="5" height="42.72" rx="2.50"/><rect x="35.00" y="11.99" width="5" height="56.02" rx="2.50"/><rect x="43.33" y="13.08" width="5" height="53.85" rx="2.50"/><rect x="51.67" y="20.68" width="5" height="38.63" rx="2.50"/><rect x="60.00" y="23.10" width="5" height="33.80" rx="2.50"/><rect x="68.33" y="22.30" width="5" height="35.40" rx="2.50"/><rect x="76.67" y="25.61" width="5" height="28.78" rx="2.50"/><rect x="85.00" y="28.18" width="5" height="23.64" rx="2.50"/><rect x="93.33" y="28.91" width="5" height="22.17" rx="2.50"/><rect x="101.67" y="33.65" width="5" height="12.71" rx="2.50"/><rect x="110.00" y="32.97" width="5" height="14.06" rx="2.50"/><rect x="118.33" y="33.99" width="5" height="12.02" rx="2.50"/><rect x="126.67" y="35.91" width="5" height="8.19" rx="2.50"/><rect x="135.00" y="36.06" width="5" height="7.89" rx="2.50"/><rect x="143.33" y="36.28" width="5" height="7.43" rx="2.50"/><rect x="151.67" y="38.00" width="5" height="4.00" rx="2.50"/><rect x="160.00" y="37.35" width="5" height="5.30" rx="2.50"/><rect x="168.33" y="37.88" width="5" height="4.24" rx="2.50"/><rect x="176.67" y="38.00" width="5" height="4.00" rx="2.50"/><rect x="185.00" y="38.00" width="5" height="4.00" rx="2.50"/><rect x="193.33" y="38.00" width="5" height="4.00" rx="2.50"/></svg>
