<svg xmlns="http://www.w3.org/2000/svg" viewBox="0 0 200 80" fill="currentColor" aria-hidden="true"><rect x="1.67" y="19.67" width="5" height="40.65" rx="2.50"/><rect x="10.00" y="2.00" width="5" height="76.00" rx="2.50"/><rect x="18.33" y="38.00" width="5" height="4.00" rx="2.50"/><rect x="26.67" y="10.11" width="5" height="59.77" rx="2.50"/><rect x="35.00" y="27.76" width="5" height="24.49" rx="2.50"/><rect x="43.33" y="20.11" width="5" height="39.78" rx="2.50"/><rect x="51.67" y="38.00" width="5" height="4.00" rx="2.50"/><rect x="60.00" y="17.60" width="5" height="44.80" rx="2.50"/><rect x="68.33" y="30.95" width="5" height="18.09" rx="2.50"/><rect x="76.67" y="31.55" width="5" height="16.89" rx="2.50"/><rect x="85.00" y="38.00" width="5" height="4.00" rx="2.50"/><rect x="93.33" y="33.83" width="5" height="12.35" rx="2.50"/><rect x="101.67" y="36.44" width="5" height="7.11" rx="2.50"/><rect x="110.00" y="36.38" width="5" height="7.25" rx="2.50"/><rect x="118.33" y="38.00" width="5" height="4.00" rx="2.50"/><rect x="126.67" y="36.61" width="5" height="6.79" rx="2.50"/><rect x="135.00" y="37.94" width="5" height="4.13" rx="2.50"/><rect x="143.33" y="38.00" width="5" height="4.00" rx="2.50"/><rect x="151.67" y="38.00" width="5" height="4.00" rx="2.50"/><rect x="160.00" y="38.00" width="5" height="4.00" rx="2.50"/><rect x="168.33" y="38.00" width="5" height="4.00" rx="2.50"/><rect x="176.67" y="38.00" width="5" height="4.00" rx="2.50"/><rect x="185.00" y="38.00" width="5" height="4.00" rx="2.50"/><rect x="193.33" y="38.00" width="5" height="4.00" rx="2.50"/></svg>
