<svg xmlns="http://www.w3.org/2000/svg" viewBox="0 0 200 80" fill="currentColor" aria-hidden="true"><rect x="1.67" y="7.87" width="5" height="64.26" rx="2.50"/><rect x="10.00" y="2.00" width="5" height="76.00" rx="2.50"/><rect x="18.33" y="11.60" width="5" height="56.79" rx="2.50"/><rect x="26.67" y="14.94" width="5" height="50.12" rx="2.50"/><rect x="35.00" y="21.58" width="5" height="36.83" rx="2.50"/><rect x="43.33" y="21.79" width="5" height="36.43" rx="2.50"/><rect x="51.67" y="23.09" width="5" height="33.82" rx="2.50"/><rect x="60.00" y="28.66" width="5" height="22.67" rx="2.50"/><rect x="68.33" y="29.10" width="5" height="21.80" rx="2.50"/><rect x="76.67" y="29.98" width="5" height="20.04" rx="2.50"/><rect x="85.00" y="32.32" width="5" height="15.36" rx="2.50"/><rect x="93.33" y="33.17" width="5" height="13.65" rx="2.50"/><rect x="101.67" y="33.96" width="5" height="12.08" rx="2.50"/><rect x="110.00" y="35.46" width="5" height="9.08" rx="2.50"/><rect x="118.33" y="36.38" width="5" height="7.25" rx="2.50"/><rect x="126.67" y="36.65" width="5" height="6.71" rx="2.50"/><rect x="135.00" y="36.68" width="5" height="6.64" rx="2.50"/><rect x="143.33" y="37.11" width="5" height="5.77" rx="2.50"/><rect x="151.67" y="38.00" width="5" height="4.00" rx="2.50"/><rect x="160.00" y="38.00" width="5" height="4.00" rx="2.50"/><rect x="168.33" y="38.00" width="5" height="4.00" rx="2.50"/><rect x="176.67" y="38.00" width="5" height="4.00" rx="2.50"/><rect x="185.00" y="38.00" width="5" height="4.00" rx="2.50"/><rect x="193.33" y="38.00" width="5" height="4.00" rx="2.50"/></svg>
