<svg xmlns="http://www.w3.org/2000/svg" viewBox="0 0 200 80" fill="currentColor" aria-hidden="true"><rect x="1.67" y="2.00" width="5" height="76.00" rx="2.50"/><rect x="10.00" y="9.00" width="5" height="62.01" rx="2.50"/><rect x="18.33" y="7.32" width="5" height="65.36" rx="2.50"/><rect x="26.67" y="11.42" width="5" height="57.16" rx="2.50"/><rect x="35.00" y="14.72" width="5" height="50.56" rx="2.50"/><rect x="43.33" y="17.31" width="5" height="45.37" rx="2.50"/><rect x="51.67" y="20.92" width="5" height="38.17" rx="2.50"/><rect x="60.00" y="24.76" width="5" height="30.47" rx="2.50"/><rect x="68.33" y="23.17" width="5" height="33.67" rx="2.50"/><rect x="76.67" y="23.37" width="5" height="33.27" rx="2.50"/><rect x="85.00" y="29.60" width="5" height="20.80" rx="2.50"/><rect x="93.33" y="30.37" width="5" height="19.26" rx="2.50"/><rect x="101.67" y="30.79" width="5" height="18.42" rx="2.50"/><rect x="110.00" y="33.84" width="5" height="12.32" rx="2.50"/><rect x="118.33" y="35.06" width="5" height="9.88" rx="2.50"/><rect x="126.67" y="36.65" width="5" height="6.69" rx="2.50"/><rect x="135.00" y="36.73" width="5" height="6.54" rx="2.50"/><rect x="143.33" y="37.24" width="5" height="5.53" rx="2.50"/><rect x="151.67" y="37.62" width="5" height="4.76" rx="2.50"/><rect x="160.00" y="37.89" width="5" height="4.22" rx="2.50"/><rect x="168.33" y="38.00" width="5" height="4.00" rx="2.50"/><rect x="176.67" y="38.00" width="5" height="4.00" rx="2.50"/><rect x="185.00" y="38.00" width="5" height="4.00" rx="2.50"/><rect x="193.33" y="38.00" width="5" height="4.00" rx="2.50"/></svg>
