<svg xmlns="http://www.w3.org/2000/svg" viewBox="0 0 200 80" fill="currentColor" aria-hidden="true"><rect x="1.67" y="10.28" width="5" height="59.44" rx="2.50"/><rect x="10.00" y="14.91" width="5" height="50.18" rx="2.50"/><rect x="18.33" y="21.57" width="5" height="36.86" rx="2.50"/><rect x="26.67" y="34.24" width="5" height="11.52" rx="2.50"/><rect x="35.00" y="38.00" width="5" height="4.00" rx="2.50"/><rect x="43.33" y="2.00" width="5" height="76.00" rx="2.50"/><rect x="51.67" y="12.11" width="5" height="55.79" rx="2.50"/><rect x="60.00" y="14.22" width="5" height="51.56" rx="2.50"/><rect x="68.33" y="20.95" width="5" height="38.10" rx="2.50"/><rect x="76.67" y="20.07" width="5" height="39.86" rx="2.50"/><rect x="85.00" y="24.93" width="5" height="30.14" rx="2.50"/><rect x="93.33" y="23.98" width="5" height="32.04" rx="2.50"/><rect x="101.67" y="32.74" width="5" height="14.52" rx="2.50"/><rect x="110.00" y="29.44" width="5" height="21.11" rx="2.50"/><rect x="118.33" y="37.66" width="5" height="4.67" rx="2.50"/><rect x="126.67" y="35.15" width="5" height="9.71" rx="2.50"/><rect x="135.00" y="35.99" width="5" height="8.01" rx="2.50"/><rect x="143.33" y="36.24" width="5" height="7.51" rx="2.50"/><rect x="151.67" y="37.56" width="5" height="4.88" rx="2.50"/><rect x="160.00" y="38.00" width="5" height="4.00" rx="2.50"/><rect x="168.33" y="38.00" width="5" height="4.00" rx="2.50"/><rect x="176.67" y="38.00" width="5" height="4.00" rx="2.50"/><rect x="185.00" y="38.00" width="5" height="4.00" rx="2.50"/><rect x="193.33" y="38.00" width="5" height="4.00" rx="2.50"/></svg>
