<svg xmlns="http://www.w3.org/2000/svg" viewBox="0 0 200 80" fill="currentColor" aria-hidden="true"><rect x="1.67" y="5.39" width="5" height="69.22" rx="2.50"/><rect x="10.00" y="4.44" width="5" height="71.11" rx="2.50"/><rect x="18.33" y="2.00" width="5" height="76.00" rx="2.50"/><rect x="26.67" y="7.87" width="5" height="64.26" rx="2.50"/><rect x="35.00" y="24.86" width="5" height="30.28" rx="2.50"/><rect x="43.33" y="12.97" width="5" height="54.05" rx="2.50"/><rect x="51.67" y="12.07" width="5" height="55.86" rx="2.50"/><rect x="60.00" y="19.31" width="5" height="41.39" rx="2.50"/><rect x="68.33" y="26.49" width="5" height="27.03" rx="2.50"/><rect x="76.67" y="28.00" width="5" height="24.01" rx="2.50"/><rect x="85.00" y="24.67" width="5" height="30.65" rx="2.50"/><rect x="93.33" y="29.64" width="5" height="20.72" rx="2.50"/><rect x="101.67" y="30.30" width="5" height="19.40" rx="2.50"/><rect x="110.00" y="35.63" width="5" height="8.74" rx="2.50"/><rect x="118.33" y="36.84" width="5" height="6.32" rx="2.50"/><rect x="126.67" y="37.50" width="5" height="5.01" rx="2.50"/><rect x="135.00" y="34.64" width="5" height="10.72" rx="2.50"/><rect x="143.33" y="35.92" width="5" height="8.16" rx="2.50"/><rect x="151.67" y="36.39" width="5" height="7.21" rx="2.50"/><rect x="160.00" y="38.00" width="5" height="4.00" rx="2.50"/><rect x="168.33" y="38.00" width="5" height="4.00" rx="2.50"/><rect x="176.67" y="38.00" width="5" height="4.00" rx="2.50"/><rect x="185.00" y="38.00" width="5" height="4.00" rx="2.50"/><rect x="193.33" y="38.00" width="5" height="4.00" rx="2.50"/></svg>
