<svg xmlns="http://www.w3.org/2000/svg" viewBox="0 0 200 80" fill="currentColor" aria-hidden="true"><rect x="1.67" y="2.00" width="5" height="76.00" rx="2.50"/><rect x="10.00" y="13.42" width="5" height="53.15" rx="2.50"/><rect x="18.33" y="23.34" width="5" height="33.31" rx="2.50"/><rect x="26.67" y="21.82" width="5" height="36.35" rx="2.50"/><rect x="35.00" y="23.34" width="5" height="33.32" rx="2.50"/><rect x="43.33" y="25.31" width="5" height="29.38" rx="2.50"/><rect x="51.67" y="28.81" width="5" height="22.38" rx="2.50"/><rect x="60.00" y="28.42" width="5" height="23.15" rx="2.50"/><rect x="68.33" y="27.25" width="5" height="25.50" rx="2.50"/><rect x="76.67" y="30.28" width="5" height="19.43" rx="2.50"/><rect x="85.00" y="32.79" width="5" height="14.41" rx="2.50"/><rect x="93.33" y="33.78" width="5" height="12.44" rx="2.50"/><rect x="101.67" y="34.80" width="5" height="10.41" rx="2.50"/><rect x="110.00" y="35.70" width="5" height="8.61" rx="2.50"/><rect x="118.33" y="35.96" width="5" height="8.07" rx="2.50"/><rect x="126.67" y="35.88" width="5" height="8.25" rx="2.50"/><rect x="135.00" y="36.59" width="5" height="6.83" rx="2.50"/><rect x="143.33" y="37.17" width="5" height="5.66" rx="2.50"/><rect x="151.67" y="37.79" width="5" height="4.41" rx="2.50"/><rect x="160.00" y="37.97" width="5" height="4.06" rx="2.50"/><rect x="168.33" y="38.00" width="5" height="4.00" rx="2.50"/><rect x="176.67" y="38.00" width="5" height="4.00" rx="2.50"/><rect x="185.00" y="38.00" width="5" height="4.00" rx="2.50"/><rect x="193.33" y="38.00" width="5" height="4.00" rx="2.50"/></svg>
