<svg xmlns="http://www.w3.org/2000/svg" viewBox="0 0 200 80" fill="currentColor" aria-hidden="true"><rect x="1.67" y="14.16" width="5" height="51.68" rx="2.50"/><rect x="10.00" y="2.00" width="5" height="76.00" rx="2.50"/><rect x="18.33" y="38.00" width="5" height="4.00" rx="2.50"/><rect x="26.67" y="20.62" width="5" height="38.76" rx="2.50"/><rect x="35.00" y="16.12" width="5" height="47.76" rx="2.50"/><rect x="43.33" y="19.55" width="5" height="40.89" rx="2.50"/><rect x="51.67" y="30.74" width="5" height="18.51" rx="2.50"/><rect x="60.00" y="38.00" width="5" height="4.00" rx="2.50"/><rect x="68.33" y="37.01" width="5" height="5.98" rx="2.50"/><rect x="76.67" y="32.34" width="5" height="15.32" rx="2.50"/><rect x="85.00" y="33.33" width="5" height="13.33" rx="2.50"/><rect x="93.33" y="33.12" width="5" height="13.76" rx="2.50"/><rect x="101.67" y="35.70" width="5" height="8.60" rx="2.50"/><rect x="110.00" y="36.60" width="5" height="6.79" rx="2.50"/><rect x="118.33" y="37.52" width="5" height="4.95" rx="2.50"/><rect x="126.67" y="37.00" width="5" height="6.00" rx="2.50"/><rect x="135.00" y="38.00" width="5" height="4.00" rx="2.50"/><rect x="143.33" y="37.66" width="5" height="4.68" rx="2.50"/><rect x="151.67" y="38.00" width="5" height="4.00" rx="2.50"/><rect x="160.00" y="38.00" width="5" height="4.00" rx="2.50"/><rect x="168.33" y="38.00" width="5" height="4.00" rx="2.50"/><rect x="176.67" y="38.00" width="5" height="4.00" rx="2.50"/><rect x="185.00" y="38.00" width="5" height="4.00" rx="2.50"/><rect x="193.33" y="38.00" width="5" height="4.00" rx="2.50"/></svg>
