<svg xmlns="http://www.w3.org/2000/svg" viewBox="0 0 200 80" fill="currentColor" aria-hidden="true"><rect x="1.67" y="2.00" width="5" height="76.00" rx="2.50"/><rect x="10.00" y="38.00" width="5" height="4.00" rx="2.50"/><rect x="18.33" y="31.80" width="5" height="16.40" rx="2.50"/><rect x="26.67" y="29.26" width="5" height="21.48" rx="2.50"/><rect x="35.00" y="38.00" width="5" height="4.00" rx="2.50"/><rect x="43.33" y="34.63" width="5" height="10.73" rx="2.50"/><rect x="51.67" y="31.00" width="5" height="17.99" rx="2.50"/><rect x="60.00" y="32.54" width="5" height="14.91" rx="2.50"/><rect x="68.33" y="38.00" width="5" height="4.00" rx="2.50"/><rect x="76.67" y="38.00" width="5" height="4.00" rx="2.50"/><rect x="85.00" y="38.00" width="5" height="4.00" rx="2.50"/><rect x="93.33" y="38.00" width="5" height="4.00" rx="2.50"/><rect x="101.67" y="38.00" width="5" height="4.00" rx="2.50"/><rect x="110.00" y="38.00" width="5" height="4.00" rx="2.50"/><rect x="118.33" y="38.00" width="5" height="4.00" rx="2.50"/><rect x="126.67" y="38.00" width="5" height="4.00" rx="2.50"/><rect x="135.00" y="38.00" width="5" height="4.00" rx="2.50"/><rect x="143.33" y="38.00" width="5" height="4.00" rx="2.50"/><rect x="151.67" y="38.00" width="5" height="4.00" rx="2.50"/><rect x="160.00" y="38.00" width="5" height="4.00" rx="2.50"/><rect x="168.33" y="38.00" width="5" height="4.00" rx="2.50"/><rect x="176.67" y="38.00" width="5" height="4.00" rx="2.50"/><rect x="185.00" y="38.00" width="5" height="4.00" rx="2.50"/><rect x="193.33" y="38.00" width="5" height="4.00" rx="2.50"/></svg>
