<svg xmlns="http://www.w3.org/2000/svg" viewBox="0 0 200 80" fill="currentColor" aria-hidden="true"><rect x="1.67" y="14.62" width="5" height="50.75" rx="2.50"/><rect x="10.00" y="4.48" width="5" height="71.03" rx="2.50"/><rect x="18.33" y="2.00" width="5" height="76.00" rx="2.50"/><rect x="26.67" y="6.08" width="5" height="67.84" rx="2.50"/><rect x="35.00" y="10.60" width="5" height="58.80" rx="2.50"/><rect x="43.33" y="8.43" width="5" height="63.15" rx="2.50"/><rect x="51.67" y="18.86" width="5" height="42.28" rx="2.50"/><rect x="60.00" y="20.74" width="5" height="38.52" rx="2.50"/><rect x="68.33" y="25.25" width="5" height="29.49" rx="2.50"/><rect x="76.67" y="28.57" width="5" height="22.87" rx="2.50"/><rect x="85.00" y="32.22" width="5" height="15.55" rx="2.50"/><rect x="93.33" y="31.86" width="5" height="16.28" rx="2.50"/><rect x="101.67" y="32.85" width="5" height="14.30" rx="2.50"/><rect x="110.00" y="35.16" width="5" height="9.67" rx="2.50"/><rect x="118.33" y="35.30" width="5" height="9.40" rx="2.50"/><rect x="126.67" y="36.28" width="5" height="7.45" rx="2.50"/><rect x="135.00" y="36.90" width="5" height="6.20" rx="2.50"/><rect x="143.33" y="38.00" width="5" height="4.00" rx="2.50"/><rect x="151.67" y="38.00" width="5" height="4.00" rx="2.50"/><rect x="160.00" y="38.00" width="5" height="4.00" rx="2.50"/><rect x="168.33" y="38.00" width="5" height="4.00" rx="2.50"/><rect x="176.67" y="38.00" width="5" height="4.00" rx="2.50"/><rect x="185.00" y="38.00" width="5" height="4.00" rx="2.50"/><rect x="193.33" y="38.00" width="5" height="4.00" rx="2.50"/></svg>
