<svg xmlns="http://www.w3.org/2000/svg" viewBox="0 0 200 80" fill="currentColor" aria-hidden="true"><rect x="1.67" y="2.00" width="5" height="76.00" rx="2.50"/><rect x="10.00" y="2.17" width="5" height="75.67" rx="2.50"/><rect x="18.33" y="10.04" width="5" height="59.92" rx="2.50"/><rect x="26.67" y="12.17" width="5" height="55.66" rx="2.50"/><rect x="35.00" y="21.25" width="5" height="37.51" rx="2.50"/><rect x="43.33" y="26.84" width="5" height="26.32" rx="2.50"/><rect x="51.67" y="26.12" width="5" height="27.75" rx="2.50"/><rect x="60.00" y="26.64" width="5" height="26.72" rx="2.50"/><rect x="68.33" y="30.07" width="5" height="19.85" rx="2.50"/><rect x="76.67" y="30.79" width="5" height="18.42" rx="2.50"/><rect x="85.00" y="32.20" width="5" height="15.59" rx="2.50"/><rect x="93.33" y="33.44" width="5" height="13.11" rx="2.50"/><rect x="101.67" y="33.88" width="5" height="12.24" rx="2.50"/><rect x="110.00" y="35.00" width="5" height="10.00" rx="2.50"/><rect x="118.33" y="35.81" width="5" height="8.39" rx="2.50"/><rect x="126.67" y="36.57" width="5" height="6.87" rx="2.50"/><rect x="135.00" y="37.21" width="5" height="5.58" rx="2.50"/><rect x="143.33" y="38.00" width="5" height="4.00" rx="2.50"/><rect x="151.67" y="38.00" width="5" height="4.00" rx="2.50"/><rect x="160.00" y="38.00" width="5" height="4.00" rx="2.50"/><rect x="168.33" y="38.00" width="5" height="4.00" rx="2.50"/><rect x="176.67" y="38.00" width="5" height="4.00" rx="2.50"/><rect x="185.00" y="38.00" width="5" height="4.00" rx="2.50"/><rect x="193.33" y="38.00" width="5" height="4.00" rx="2.50"/></svg>
