<svg xmlns="http://www.w3.org/2000/svg" viewBox="0 0 200 80" fill="currentColor" aria-hidden="true"><rect x="1.67" y="6.75" width="5" height="66.50" rx="2.50"/><rect x="10.00" y="2.00" width="5" height="76.00" rx="2.50"/><rect x="18.33" y="8.01" width="5" height="63.98" rx="2.50"/><rect x="26.67" y="14.07" width="5" height="51.85" rx="2.50"/><rect x="35.00" y="34.92" width="5" height="10.15" rx="2.50"/><rect x="43.33" y="17.60" width="5" height="44.80" rx="2.50"/><rect x="51.67" y="22.20" width="5" height="35.60" rx="2.50"/><rect x="60.00" y="23.30" width="5" height="33.41" rx="2.50"/><rect x="68.33" y="22.91" width="5" height="34.17" rx="2.50"/><rect x="76.67" y="31.39" width="5" height="17.23" rx="2.50"/><rect x="85.00" y="29.49" width="5" height="21.03" rx="2.50"/><rect x="93.33" y="29.16" width="5" height="21.67" rx="2.50"/><rect x="101.67" y="35.82" width="5" height="8.37" rx="2.50"/><rect x="110.00" y="34.37" width="5" height="11.27" rx="2.50"/><rect x="118.33" y="35.79" width="5" height="8.42" rx="2.50"/><rect x="126.67" y="35.92" width="5" height="8.17" rx="2.50"/><rect x="135.00" y="36.59" width="5" height="6.83" rx="2.50"/><rect x="143.33" y="38.00" width="5" height="4.00" rx="2.50"/><rect x="151.67" y="37.65" width="5" height="4.69" rx="2.50"/><rect x="160.00" y="37.96" width="5" height="4.09" rx="2.50"/><rect x="168.33" y="38.00" width="5" height="4.00" rx="2.50"/><rect x="176.67" y="38.00" width="5" height="4.00" rx="2.50"/><rect x="185.00" y="38.00" width="5" height="4.00" rx="2.50"/><rect x="193.33" y="38.00" width="5" height="4.00" rx="2.50"/></svg>
